<?xml version="1.0" encoding="utf-8" standalone="no"?>
<!DOCTYPE svg PUBLIC "-//W3C//DTD SVG 1.1//EN" "http://www.w3.org/Graphics/SVG/1.1/DTD/svg11.dtd">
<svg width="600" height="400" version="1.1" xmlns:xlink="http://www.w3.org/1999/xlink" xmlns="http://www.w3.org/2000/svg">
  <polyline points="80.7243,356.894 80.7243,360.894" style="fill:none;stroke:black;stroke-width:1" />
  <polyline points="110.4842,356.894 110.4842,360.894" style="fill:none;stroke:black;stroke-width:1" />
  <polyline points="140.2442,356.894 140.2442,360.894" style="fill:none;stroke:black;stroke-width:1" />
  <polyline points="199.764,356.894 199.764,360.894" style="fill:none;stroke:black;stroke-width:1" />
  <polyline points="229.524,356.894 229.524,360.894" style="fill:none;stroke:black;stroke-width:1" />
  <polyline points="259.2839,356.894 259.2839,360.894" style="fill:none;stroke:black;stroke-width:1" />
  <polyline points="318.8038,356.894 318.8038,360.894" style="fill:none;stroke:black;stroke-width:1" />
  <polyline points="348.5637,356.894 348.5637,360.894" style="fill:none;stroke:black;stroke-width:1" />
  <polyline points="378.3237,356.894 378.3237,360.894" style="fill:none;stroke:black;stroke-width:1" />
  <polyline points="437.8435,356.894 437.8435,360.894" style="fill:none;stroke:black;stroke-width:1" />
  <polyline points="467.6035,356.894 467.6035,360.894" style="fill:none;stroke:black;stroke-width:1" />
  <polyline points="497.3634,356.894 497.3634,360.894" style="fill:none;stroke:black;stroke-width:1" />
  <polyline points="556.8833,356.894 556.8833,360.894" style="fill:none;stroke:black;stroke-width:1" />
  <polyline points="586.6432,356.894 586.6432,360.894" style="fill:none;stroke:black;stroke-width:1" />
  <polyline points="45.554,337.0502 41.554,337.0502" style="fill:none;stroke:black;stroke-width:1" />
  <polyline points="45.554,320.452 41.554,320.452" style="fill:none;stroke:black;stroke-width:1" />
  <polyline points="45.554,303.8539 41.554,303.8539" style="fill:none;stroke:black;stroke-width:1" />
  <polyline points="45.554,270.6576 41.554,270.6576" style="fill:none;stroke:black;stroke-width:1" />
  <polyline points="45.554,254.0594 41.554,254.0594" style="fill:none;stroke:black;stroke-width:1" />
  <polyline points="45.554,237.4613 41.554,237.4613" style="fill:none;stroke:black;stroke-width:1" />
  <polyline points="45.554,204.265 41.554,204.265" style="fill:none;stroke:black;stroke-width:1" />
  <polyline points="45.554,187.6668 41.554,187.6668" style="fill:none;stroke:black;stroke-width:1" />
  <polyline points="45.554,171.0687 41.554,171.0687" style="fill:none;stroke:black;stroke-width:1" />
  <polyline points="45.554,137.8724 41.554,137.8724" style="fill:none;stroke:black;stroke-width:1" />
  <polyline points="45.554,121.2743 41.554,121.2743" style="fill:none;stroke:black;stroke-width:1" />
  <polyline points="45.554,104.6761 41.554,104.6761" style="fill:none;stroke:black;stroke-width:1" />
  <polyline points="45.554,71.4798 41.554,71.4798" style="fill:none;stroke:black;stroke-width:1" />
  <polyline points="45.554,54.8817 41.554,54.8817" style="fill:none;stroke:black;stroke-width:1" />
  <polyline points="45.554,38.2835 41.554,38.2835" style="fill:none;stroke:black;stroke-width:1" />
  <text dominant-baseline="hanging" text-anchor="middle" transform="translate(50.9644,367.894)" font-family="Segoe UI" font-size="12" font-weight="400" fill="black">0</text>
  <text dominant-baseline="hanging" text-anchor="middle" transform="translate(170.0041,367.894)" font-family="Segoe UI" font-size="12" font-weight="400" fill="black">2</text>
  <text dominant-baseline="hanging" text-anchor="middle" transform="translate(289.0438,367.894)" font-family="Segoe UI" font-size="12" font-weight="400" fill="black">4</text>
  <text dominant-baseline="hanging" text-anchor="middle" transform="translate(408.0836,367.894)" font-family="Segoe UI" font-size="12" font-weight="400" fill="black">6</text>
  <text dominant-baseline="hanging" text-anchor="middle" transform="translate(527.1233,367.894)" font-family="Segoe UI" font-size="12" font-weight="400" fill="black">8</text>
  <polyline points="50.9644,356.894 50.9644,363.894" style="fill:none;stroke:black;stroke-width:1" />
  <polyline points="170.0041,356.894 170.0041,363.894" style="fill:none;stroke:black;stroke-width:1" />
  <polyline points="289.0438,356.894 289.0438,363.894" style="fill:none;stroke:black;stroke-width:1" />
  <polyline points="408.0836,356.894 408.0836,363.894" style="fill:none;stroke:black;stroke-width:1" />
  <polyline points="527.1233,356.894 527.1233,363.894" style="fill:none;stroke:black;stroke-width:1" />
  <text dominant-baseline="baseline" text-anchor="middle" transform="translate(318.777,388)" font-family="Segoe UI" font-size="12" font-weight="400" fill="black">Эпоха обучения</text>
  <text dominant-baseline="middle" text-anchor="end" transform="translate(34.554,353.6483)" font-family="Segoe UI" font-size="12" font-weight="400" fill="black">0</text>
  <text dominant-baseline="middle" text-anchor="end" transform="translate(34.554,287.2557)" font-family="Segoe UI" font-size="12" font-weight="400" fill="black">0,2</text>
  <text dominant-baseline="middle" text-anchor="end" transform="translate(34.554,220.8631)" font-family="Segoe UI" font-size="12" font-weight="400" fill="black">0,4</text>
  <text dominant-baseline="middle" text-anchor="end" transform="translate(34.554,154.4705)" font-family="Segoe UI" font-size="12" font-weight="400" fill="black">0,6</text>
  <text dominant-baseline="middle" text-anchor="end" transform="translate(34.554,88.078)" font-family="Segoe UI" font-size="12" font-weight="400" fill="black">0,8</text>
  <polyline points="45.554,353.6483 38.554,353.6483" style="fill:none;stroke:black;stroke-width:1" />
  <polyline points="45.554,287.2557 38.554,287.2557" style="fill:none;stroke:black;stroke-width:1" />
  <polyline points="45.554,220.8631 38.554,220.8631" style="fill:none;stroke:black;stroke-width:1" />
  <polyline points="45.554,154.4705 38.554,154.4705" style="fill:none;stroke:black;stroke-width:1" />
  <polyline points="45.554,88.078 38.554,88.078" style="fill:none;stroke:black;stroke-width:1" />
  <text dominant-baseline="hanging" text-anchor="middle" transform="translate(12,192.9868) rotate(-90)" font-family="Segoe UI" font-size="12" font-weight="400" fill="black">Доля верных ответов</text>
  <polyline points="50.9644,232.6056 110.4842,216.8174 170.0041,121.1838 229.524,82.8646 289.0438,65.9252 348.5637,50.0548 408.0836,43.5586 467.6035,38.707 527.1233,34.431 586.6432,32.2931" style="fill:none;stroke:rgb(0,0,255);stroke-width:1;stroke-linejoin:bevel" />
  <ellipse cx="50.9644" cy="232.6056" rx="2" ry="2" style="fill:rgb(0,0,255);stroke:none;" />
  <ellipse cx="110.4842" cy="216.8174" rx="2" ry="2" style="fill:rgb(0,0,255);stroke:none;" />
  <ellipse cx="170.0041" cy="121.1838" rx="2" ry="2" style="fill:rgb(0,0,255);stroke:none;" />
  <ellipse cx="229.524" cy="82.8646" rx="2" ry="2" style="fill:rgb(0,0,255);stroke:none;" />
  <ellipse cx="289.0438" cy="65.9252" rx="2" ry="2" style="fill:rgb(0,0,255);stroke:none;" />
  <ellipse cx="348.5637" cy="50.0548" rx="2" ry="2" style="fill:rgb(0,0,255);stroke:none;" />
  <ellipse cx="408.0836" cy="43.5586" rx="2" ry="2" style="fill:rgb(0,0,255);stroke:none;" />
  <ellipse cx="467.6035" cy="38.707" rx="2" ry="2" style="fill:rgb(0,0,255);stroke:none;" />
  <ellipse cx="527.1233" cy="34.431" rx="2" ry="2" style="fill:rgb(0,0,255);stroke:none;" />
  <ellipse cx="586.6432" cy="32.2931" rx="2" ry="2" style="fill:rgb(0,0,255);stroke:none;" />
  <polyline points="50.9644,353.6483 110.4842,275.2784 170.0041,83.7898 229.524,52.7376 289.0438,53.4769 348.5637,40.1688 408.0836,34.2541 467.6035,39.4295 527.1233,43.1262 586.6432,51.9982" style="fill:none;stroke:rgb(255,0,0);stroke-width:1;stroke-linejoin:bevel" />
  <ellipse cx="50.9644" cy="353.6483" rx="2" ry="2" style="fill:rgb(255,0,0);stroke:none;" />
  <ellipse cx="110.4842" cy="275.2784" rx="2" ry="2" style="fill:rgb(255,0,0);stroke:none;" />
  <ellipse cx="170.0041" cy="83.7898" rx="2" ry="2" style="fill:rgb(255,0,0);stroke:none;" />
  <ellipse cx="229.524" cy="52.7376" rx="2" ry="2" style="fill:rgb(255,0,0);stroke:none;" />
  <ellipse cx="289.0438" cy="53.4769" rx="2" ry="2" style="fill:rgb(255,0,0);stroke:none;" />
  <ellipse cx="348.5637" cy="40.1688" rx="2" ry="2" style="fill:rgb(255,0,0);stroke:none;" />
  <ellipse cx="408.0836" cy="34.2541" rx="2" ry="2" style="fill:rgb(255,0,0);stroke:none;" />
  <ellipse cx="467.6035" cy="39.4295" rx="2" ry="2" style="fill:rgb(255,0,0);stroke:none;" />
  <ellipse cx="527.1233" cy="43.1262" rx="2" ry="2" style="fill:rgb(255,0,0);stroke:none;" />
  <ellipse cx="586.6432" cy="51.9982" rx="2" ry="2" style="fill:rgb(255,0,0);stroke:none;" />
  <text dominant-baseline="hanging" text-anchor="middle" transform="translate(318.777,8)" font-family="Segoe UI" font-size="18" font-weight="700" fill="black">Scatter Plot (10 points each)</text>
  <polygon points="45.554,29.0795 592,29.0795 592,356.894 45.554,356.894" style="fill:none;stroke:black;stroke-width:1" />
  <polygon points="53.554,312.788 102.019,312.788 102.019,348.894 53.554,348.894" style="fill:none;stroke:none;" />
  <text dominant-baseline="hanging" text-anchor="start" transform="translate(81.554,320.788)" font-family="Segoe UI" font-size="12" font-weight="400" fill="black">Доля верных ответов на обучающем наборе</text>
  <polyline points="61.554,325.8145 77.554,325.8145" style="fill:none;stroke:rgb(0,0,255);stroke-width:1" />
  <ellipse cx="69.554" cy="325.8145" rx="2" ry="2" style="fill:rgb(0,0,255);stroke:none;" />
  <text dominant-baseline="hanging" text-anchor="start" transform="translate(81.554,330.841)" font-family="Segoe UI" font-size="12" font-weight="400" fill="black">Доля верных ответов на проверочном наборе</text>
  <polyline points="61.554,335.8675 77.554,335.8675" style="fill:none;stroke:rgb(255,0,0);stroke-width:1" />
  <ellipse cx="69.554" cy="335.8675" rx="2" ry="2" style="fill:rgb(255,0,0);stroke:none;" />
</svg>